<?xml version="1.0" encoding="utf-8"?>
<svg version="1.1" xmlns:xlink="http://www.w3.org/1999/xlink" width="17px" height="16px" xmlns="http://www.w3.org/2000/svg">
  <defs>
    <mask fill="white" id="clip28">
      <path d="M 9.8421052631579 9.2  L 17 11.2  L 17 9.6  L 9.8421052631579 5.6  L 9.8421052631579 1.2  C 9.8421052631579 0.536  9.24263157894737 0  8.5 0  C 7.75736842105263 0  7.1578947368421 0.536  7.1578947368421 1.2  L 7.1578947368421 5.6  L 0 9.6  L 0 11.2  L 7.1578947368421 9.2  L 7.1578947368421 13.6  L 5.36842105263158 14.8  L 5.36842105263158 16  L 8.5 15.2  L 11.6315789473684 16  L 11.6315789473684 14.8  L 9.8421052631579 13.6  L 9.8421052631579 9.2  Z " fill-rule="evenodd" />
    </mask>
  </defs>
  <g transform="matrix(1 0 0 1 -288 -22 )">
    <path d="M 9.8421052631579 9.2  L 17 11.2  L 17 9.6  L 9.8421052631579 5.6  L 9.8421052631579 1.2  C 9.8421052631579 0.536  9.24263157894737 0  8.5 0  C 7.75736842105263 0  7.1578947368421 0.536  7.1578947368421 1.2  L 7.1578947368421 5.6  L 0 9.6  L 0 11.2  L 7.1578947368421 9.2  L 7.1578947368421 13.6  L 5.36842105263158 14.8  L 5.36842105263158 16  L 8.5 15.2  L 11.6315789473684 16  L 11.6315789473684 14.8  L 9.8421052631579 13.6  L 9.8421052631579 9.2  Z " fill-rule="nonzero" fill="#333333" stroke="none" fill-opacity="0" transform="matrix(1 0 0 1 288 22 )" />
    <path d="M 9.8421052631579 9.2  L 17 11.2  L 17 9.6  L 9.8421052631579 5.6  L 9.8421052631579 1.2  C 9.8421052631579 0.536  9.24263157894737 0  8.5 0  C 7.75736842105263 0  7.1578947368421 0.536  7.1578947368421 1.2  L 7.1578947368421 5.6  L 0 9.6  L 0 11.2  L 7.1578947368421 9.2  L 7.1578947368421 13.6  L 5.36842105263158 14.8  L 5.36842105263158 16  L 8.5 15.2  L 11.6315789473684 16  L 11.6315789473684 14.8  L 9.8421052631579 13.6  L 9.8421052631579 9.2  Z " stroke-width="2" stroke="#aaaaaa" fill="none" transform="matrix(1 0 0 1 288 22 )" mask="url(#clip28)" />
  </g>
</svg>